<?xml version="1.0" encoding="UTF-8" standalone="no"?><!DOCTYPE svg PUBLIC "-//W3C//DTD SVG 1.1//EN" "http://www.w3.org/Graphics/SVG/1.1/DTD/svg11.dtd"><!-- Generated by graphviz version 2.40.1 (20161225.0304)
 --><!-- Title: G Pages: 1 --><svg xmlns="http://www.w3.org/2000/svg" xmlns:xlink="http://www.w3.org/1999/xlink" width="616pt" height="476pt" viewBox="0.00 0.00 615.77 476.00">
<g id="graph0" class="graph" transform="scale(1 1) rotate(0) translate(4 472)">
<title>G</title>
<polygon fill="#ffffff" stroke="transparent" points="-4,4 -4,-472 611.7736,-472 611.7736,4 -4,4"/>
<!-- Main -->
<g id="node1" class="node">
<title>Main</title>
<ellipse fill="none" stroke="#000000" cx="392.5653" cy="-450" rx="31.339" ry="18"/>
<text text-anchor="middle" x="392.5653" y="-445.8" font-family="Times,serif" font-size="14.00" fill="#000000">Main</text>
</g>
<!-- Engine -->
<g id="node2" class="node">
<title>Engine</title>
<ellipse fill="none" stroke="#000000" cx="392.5653" cy="-378" rx="38.2838" ry="18"/>
<text text-anchor="middle" x="392.5653" y="-373.8" font-family="Times,serif" font-size="14.00" fill="#000000">Engine</text>
</g>
<!-- Main&#45;&gt;Engine -->
<g id="edge1" class="edge">
<title>Main-&gt;Engine</title>
<path fill="none" stroke="#000000" d="M392.5653,-431.8314C392.5653,-424.131 392.5653,-414.9743 392.5653,-406.4166"/>
<polygon fill="#000000" stroke="#000000" points="396.0654,-406.4132 392.5653,-396.4133 389.0654,-406.4133 396.0654,-406.4132"/>
</g>
<!-- GameplayManager -->
<g id="node3" class="node">
<title>GameplayManager</title>
<ellipse fill="none" stroke="#000000" cx="259.5653" cy="-306" rx="85.0734" ry="18"/>
<text text-anchor="middle" x="259.5653" y="-301.8" font-family="Times,serif" font-size="14.00" fill="#000000">GameplayManager</text>
</g>
<!-- Engine&#45;&gt;GameplayManager -->
<g id="edge2" class="edge">
<title>Engine-&gt;GameplayManager</title>
<path fill="none" stroke="#000000" d="M367.236,-364.2879C348.2431,-354.006 321.8633,-339.7252 299.969,-327.8727"/>
<polygon fill="#000000" stroke="#000000" points="301.3554,-324.6433 290.895,-322.9604 298.0228,-330.7991 301.3554,-324.6433"/>
</g>
<!-- PhysicsManager -->
<g id="node4" class="node">
<title>PhysicsManager</title>
<ellipse fill="none" stroke="#000000" cx="354.5653" cy="-90" rx="74.7188" ry="18"/>
<text text-anchor="middle" x="354.5653" y="-85.8" font-family="Times,serif" font-size="14.00" fill="#000000">PhysicsManager</text>
</g>
<!-- Engine&#45;&gt;PhysicsManager -->
<g id="edge3" class="edge">
<title>Engine-&gt;PhysicsManager</title>
<path fill="none" stroke="#000000" d="M390.1883,-359.9843C383.7638,-311.2939 366.0176,-176.7961 358.2673,-118.0573"/>
<polygon fill="#000000" stroke="#000000" points="361.7196,-117.4651 356.9415,-108.0089 354.7798,-118.3808 361.7196,-117.4651"/>
</g>
<!-- GraphicsManager -->
<g id="node5" class="node">
<title>GraphicsManager</title>
<ellipse fill="none" stroke="#000000" cx="527.5653" cy="-90" rx="80.417" ry="18"/>
<text text-anchor="middle" x="527.5653" y="-85.8" font-family="Times,serif" font-size="14.00" fill="#000000">GraphicsManager</text>
</g>
<!-- Engine&#45;&gt;GraphicsManager -->
<g id="edge4" class="edge">
<title>Engine-&gt;GraphicsManager</title>
<path fill="none" stroke="#000000" d="M400.807,-360.4178C423.5358,-311.9296 487.2374,-176.0328 514.6996,-117.4469"/>
<polygon fill="#000000" stroke="#000000" points="518.0116,-118.6274 519.0869,-108.0873 511.6734,-115.6563 518.0116,-118.6274"/>
</g>
<!-- Entity -->
<g id="node6" class="node">
<title>Entity</title>
<ellipse fill="none" stroke="#000000" cx="188.5653" cy="-90" rx="34.7883" ry="18"/>
<text text-anchor="middle" x="188.5653" y="-85.8" font-family="Times,serif" font-size="14.00" fill="#000000">Entity</text>
</g>
<!-- GameplayManager&#45;&gt;Entity -->
<g id="edge5" class="edge">
<title>GameplayManager-&gt;Entity</title>
<path fill="none" stroke="#000000" d="M253.634,-287.9555C241.2042,-250.1409 212.3577,-162.3825 197.6061,-117.5042"/>
<polygon fill="#000000" stroke="#000000" points="200.8775,-116.2482 194.4298,-107.8413 194.2276,-118.4342 200.8775,-116.2482"/>
</g>
<!-- Player -->
<g id="node7" class="node">
<title>Player</title>
<ellipse fill="none" stroke="#000000" cx="125.5653" cy="-234" rx="35.9115" ry="18"/>
<text text-anchor="middle" x="125.5653" y="-229.8" font-family="Times,serif" font-size="14.00" fill="#000000">Player</text>
</g>
<!-- GameplayManager&#45;&gt;Player -->
<g id="edge6" class="edge">
<title>GameplayManager-&gt;Player</title>
<path fill="none" stroke="#000000" d="M223.3978,-289.6621C202.2407,-278.9401 175.9325,-264.8615 155.863,-253.5461"/>
<polygon fill="#000000" stroke="#000000" points="157.5428,-250.4749 147.1218,-248.5635 154.0764,-256.5563 157.5428,-250.4749"/>
</g>
<!-- Target -->
<g id="node8" class="node">
<title>Target</title>
<ellipse fill="none" stroke="#000000" cx="290.5653" cy="-162" rx="36.4742" ry="18"/>
<text text-anchor="middle" x="290.5653" y="-157.8" font-family="Times,serif" font-size="14.00" fill="#000000">Target</text>
</g>
<!-- GameplayManager&#45;&gt;Target -->
<g id="edge7" class="edge">
<title>GameplayManager-&gt;Target</title>
<path fill="none" stroke="#000000" d="M258.8183,-287.7623C261.674,-262.958 271.0159,-218.3758 279.2049,-189.5009"/>
<polygon fill="#000000" stroke="#000000" points="282.6421,-190.2229 282.1556,-179.6392 275.9359,-188.2163 282.6421,-190.2229"/>
</g>
<!-- Collision -->
<g id="node14" class="node">
<title>Collision</title>
<ellipse fill="none" stroke="#000000" cx="359.5653" cy="-18" rx="46.4048" ry="18"/>
<text text-anchor="middle" x="359.5653" y="-13.8" font-family="Times,serif" font-size="14.00" fill="#000000">Collision</text>
</g>
<!-- PhysicsManager&#45;&gt;Collision -->
<g id="edge23" class="edge">
<title>PhysicsManager-&gt;Collision</title>
<path fill="none" stroke="#000000" d="M355.827,-71.8314C356.3618,-64.131 356.9977,-54.9743 357.5919,-46.4166"/>
<polygon fill="#000000" stroke="#000000" points="361.0853,-46.6317 358.2866,-36.4133 354.1022,-46.1467 361.0853,-46.6317"/>
</g>
<!-- GraphicsManager&#45;&gt;GameplayManager -->
<g id="edge24" class="edge">
<title>GraphicsManager-&gt;GameplayManager</title>
<path fill="none" stroke="#000000" d="M495.4256,-106.6538C477.2576,-116.6036 454.4679,-130.0028 435.5653,-144 377.1684,-187.2424 316.3793,-247.0526 283.7486,-280.582"/>
<polygon fill="#000000" stroke="#000000" points="280.8965,-278.4963 276.4593,-288.1172 285.9277,-283.3632 280.8965,-278.4963"/>
</g>
<!-- InputManager -->
<g id="node11" class="node">
<title>InputManager</title>
<ellipse fill="none" stroke="#000000" cx="510.5653" cy="-18" rx="65.9735" ry="18"/>
<text text-anchor="middle" x="510.5653" y="-13.8" font-family="Times,serif" font-size="14.00" fill="#000000">InputManager</text>
</g>
<!-- GraphicsManager&#45;&gt;InputManager -->
<g id="edge26" class="edge">
<title>GraphicsManager-&gt;InputManager</title>
<path fill="none" stroke="#000000" d="M523.2755,-71.8314C521.4574,-64.131 519.2954,-54.9743 517.2748,-46.4166"/>
<polygon fill="#000000" stroke="#000000" points="520.6172,-45.3414 514.9129,-36.4133 513.8046,-46.95 520.6172,-45.3414"/>
</g>
<!-- ShapeList -->
<g id="node13" class="node">
<title>ShapeList</title>
<ellipse fill="none" stroke="#000000" cx="245.5653" cy="-18" rx="49.8156" ry="18"/>
<text text-anchor="middle" x="245.5653" y="-13.8" font-family="Times,serif" font-size="14.00" fill="#000000">ShapeList</text>
</g>
<!-- GraphicsManager&#45;&gt;ShapeList -->
<g id="edge25" class="edge">
<title>GraphicsManager-&gt;ShapeList</title>
<path fill="none" stroke="#000000" d="M470.503,-77.1522C425.308,-66.743 360.6649,-51.3358 304.5653,-36 300.7803,-34.9653 296.8701,-33.8581 292.9481,-32.7202"/>
<polygon fill="#000000" stroke="#000000" points="293.8213,-29.3287 283.2394,-29.8528 291.8385,-36.042 293.8213,-29.3287"/>
</g>
<!-- Player&#45;&gt;GameplayManager -->
<g id="edge10" class="edge">
<title>Player-&gt;GameplayManager</title>
<path fill="none" stroke="#000000" d="M152.9367,-245.9278C173.6595,-256.1925 202.1055,-271.2766 224.4677,-283.7613"/>
<polygon fill="#000000" stroke="#000000" points="222.8979,-286.8941 233.3282,-288.7542 226.3344,-280.7957 222.8979,-286.8941"/>
</g>
<!-- Player&#45;&gt;PhysicsManager -->
<g id="edge9" class="edge">
<title>Player-&gt;PhysicsManager</title>
<path fill="none" stroke="#000000" d="M143.9257,-218.5427C166.8399,-199.6568 207.6418,-167.3418 245.5653,-144 265.7492,-131.5769 289.1842,-119.6682 309.1409,-110.2104"/>
<polygon fill="#000000" stroke="#000000" points="310.7599,-113.3171 318.3341,-105.909 307.7933,-106.9768 310.7599,-113.3171"/>
</g>
<!-- Player&#45;&gt;Target -->
<g id="edge13" class="edge">
<title>Player-&gt;Target</title>
<path fill="none" stroke="#000000" d="M152.8117,-222.1107C180.398,-210.073 223.2386,-191.3789 253.8164,-178.0359"/>
<polygon fill="#000000" stroke="#000000" points="255.5129,-181.1144 263.2785,-173.907 252.7132,-174.6986 255.5129,-181.1144"/>
</g>
<!-- Player&#45;&gt;InputManager -->
<g id="edge11" class="edge">
<title>Player-&gt;InputManager</title>
<path fill="none" stroke="#000000" d="M121.3827,-215.9528C114.8075,-182.499 106.4248,-110.748 144.5653,-72 187.0277,-28.8613 354.7974,-45.5809 414.5653,-36 425.1411,-34.3047 436.3423,-32.3501 447.2166,-30.3675"/>
<polygon fill="#000000" stroke="#000000" points="447.8857,-33.8032 457.0838,-28.5455 446.6145,-26.9196 447.8857,-33.8032"/>
</g>
<!-- Character -->
<g id="node12" class="node">
<title>Character</title>
<ellipse fill="none" stroke="#000000" cx="48.5653" cy="-162" rx="48.6307" ry="18"/>
<text text-anchor="middle" x="48.5653" y="-157.8" font-family="Times,serif" font-size="14.00" fill="#000000">Character</text>
</g>
<!-- Player&#45;&gt;Character -->
<g id="edge12" class="edge">
<title>Player-&gt;Character</title>
<path fill="none" stroke="#000000" d="M108.4765,-218.0209C98.3968,-208.5957 85.4462,-196.486 74.1659,-185.9382"/>
<polygon fill="#000000" stroke="#000000" points="76.374,-183.2111 66.6792,-178.9377 71.593,-188.3241 76.374,-183.2111"/>
</g>
<!-- Target&#45;&gt;GameplayManager -->
<g id="edge16" class="edge">
<title>Target-&gt;GameplayManager</title>
<path fill="none" stroke="#000000" d="M291.3198,-180.1727C288.4838,-204.8697 279.193,-249.2595 271.0194,-278.1684"/>
<polygon fill="#000000" stroke="#000000" points="267.5753,-277.4703 268.0726,-288.0535 274.2836,-279.4701 267.5753,-277.4703"/>
</g>
<!-- Target&#45;&gt;PhysicsManager -->
<g id="edge15" class="edge">
<title>Target-&gt;PhysicsManager</title>
<path fill="none" stroke="#000000" d="M305.4091,-145.3008C313.3344,-136.3848 323.253,-125.2264 332.1012,-115.2722"/>
<polygon fill="#000000" stroke="#000000" points="334.8814,-117.4126 338.9092,-107.6132 329.6496,-112.762 334.8814,-117.4126"/>
</g>
<!-- Target&#45;&gt;GraphicsManager -->
<g id="edge17" class="edge">
<title>Target-&gt;GraphicsManager</title>
<path fill="none" stroke="#000000" d="M319.8039,-151.1174C326.5911,-148.6906 333.8073,-146.1897 340.5653,-144 382.1435,-130.5281 429.4421,-116.885 466.0676,-106.6826"/>
<polygon fill="#000000" stroke="#000000" points="467.4007,-109.945 476.1012,-103.8992 465.5294,-103.1998 467.4007,-109.945"/>
</g>
<!-- Target&#45;&gt;Entity -->
<g id="edge19" class="edge">
<title>Target-&gt;Entity</title>
<path fill="none" stroke="#000000" d="M269.4309,-147.0816C254.4243,-136.4887 234.0911,-122.1358 217.5683,-110.4727"/>
<polygon fill="#000000" stroke="#000000" points="219.5118,-107.5605 209.3237,-104.653 215.475,-113.2793 219.5118,-107.5605"/>
</g>
<!-- Target&#45;&gt;ShapeList -->
<g id="edge18" class="edge">
<title>Target-&gt;ShapeList</title>
<path fill="none" stroke="#000000" d="M283.5189,-144.1317C279.5035,-133.6756 274.5035,-120.1756 270.5653,-108 263.8903,-87.3629 257.3661,-63.7231 252.657,-45.8514"/>
<polygon fill="#000000" stroke="#000000" points="256.0147,-44.8563 250.1068,-36.0616 249.2408,-46.621 256.0147,-44.8563"/>
</g>
<!-- GameplayerManager -->
<g id="node9" class="node">
<title>GameplayerManager</title>
<ellipse fill="none" stroke="#000000" cx="125.5653" cy="-450" rx="92.5765" ry="18"/>
<text text-anchor="middle" x="125.5653" y="-445.8" font-family="Times,serif" font-size="14.00" fill="#000000">GameplayerManager</text>
</g>
<!-- Enemy -->
<g id="node10" class="node">
<title>Enemy</title>
<ellipse fill="none" stroke="#000000" cx="125.5653" cy="-378" rx="38.2838" ry="18"/>
<text text-anchor="middle" x="125.5653" y="-373.8" font-family="Times,serif" font-size="14.00" fill="#000000">Enemy</text>
</g>
<!-- GameplayerManager&#45;&gt;Enemy -->
<g id="edge8" class="edge">
<title>GameplayerManager-&gt;Enemy</title>
<path fill="none" stroke="#000000" d="M125.5653,-431.8314C125.5653,-424.131 125.5653,-414.9743 125.5653,-406.4166"/>
<polygon fill="#000000" stroke="#000000" points="129.0654,-406.4132 125.5653,-396.4133 122.0654,-406.4133 129.0654,-406.4132"/>
</g>
<!-- Enemy&#45;&gt;GameplayManager -->
<g id="edge20" class="edge">
<title>Enemy-&gt;GameplayManager</title>
<path fill="none" stroke="#000000" d="M151.0851,-364.2879C170.3062,-353.9601 197.0364,-339.5976 219.153,-327.7141"/>
<polygon fill="#000000" stroke="#000000" points="220.8478,-330.7768 228.0001,-322.9604 217.5345,-324.6105 220.8478,-330.7768"/>
</g>
<!-- Enemy&#45;&gt;Player -->
<g id="edge21" class="edge">
<title>Enemy-&gt;Player</title>
<path fill="none" stroke="#000000" d="M125.5653,-359.7623C125.5653,-335.201 125.5653,-291.2474 125.5653,-262.3541"/>
<polygon fill="#000000" stroke="#000000" points="129.0654,-262.0896 125.5653,-252.0896 122.0654,-262.0897 129.0654,-262.0896"/>
</g>
<!-- Enemy&#45;&gt;Character -->
<g id="edge22" class="edge">
<title>Enemy-&gt;Character</title>
<path fill="none" stroke="#000000" d="M119.1487,-360.0585C110.4117,-335.6232 94.2882,-290.5097 80.5653,-252 73.0853,-231.0092 64.6411,-207.2576 58.3059,-189.427"/>
<polygon fill="#000000" stroke="#000000" points="61.5786,-188.1837 54.9329,-179.9323 54.9824,-190.5271 61.5786,-188.1837"/>
</g>
<!-- Character&#45;&gt;ShapeList -->
<g id="edge14" class="edge">
<title>Character-&gt;ShapeList</title>
<path fill="none" stroke="#000000" d="M57.0731,-144.1161C67.4181,-124.0798 86.6306,-91.8186 111.5653,-72 135.6794,-52.8337 167.4957,-39.6291 194.0748,-31.0771"/>
<polygon fill="#000000" stroke="#000000" points="195.4527,-34.315 203.978,-28.0246 193.3907,-27.6256 195.4527,-34.315"/>
</g>
</g>
</svg>